<svg width="16" height="16" viewBox="0 0 16 16" fill="none" xmlns="http://www.w3.org/2000/svg">
<path d="M8 15C8.25 15 8.5 14.9062 8.6875 14.7188C8.875 14.5312 9 14.2812 9 14H10C10 14.5625 9.78125 15.0312 9.40625 15.4062C9 15.8125 8.53125 16 8 16C7.4375 16 6.96875 15.8125 6.59375 15.4062C6.1875 15.0312 6 14.5625 6 14H7C7 14.2812 7.09375 14.5312 7.28125 14.7188C7.46875 14.9062 7.71875 15 8 15ZM14.5312 10.4688C14.75 10.6875 14.9062 10.9375 14.9688 11.2188C15.0312 11.5312 15 11.8125 14.875 12.0938C14.75 12.375 14.5938 12.5938 14.3438 12.75C14.0938 12.9375 13.8125 13 13.5 13H2.5C2.1875 13 1.90625 12.9375 1.65625 12.75C1.40625 12.5938 1.21875 12.375 1.09375 12.0938C0.96875 11.8125 0.96875 11.5312 1.03125 11.2188C1.09375 10.9375 1.21875 10.6875 1.46875 10.4688C1.96875 9.96875 2.34375 9.46875 2.5625 8.9375C2.84375 8.1875 3 7.15625 3 5.8125C3 5 3.1875 4.25 3.59375 3.5625C3.96875 2.875 4.53125 2.28125 5.21875 1.84375C5.90625 1.40625 6.65625 1.125 7.5 1.0625V0.5C7.5 0.375 7.53125 0.25 7.625 0.15625C7.71875 0.0625 7.84375 0 8 0C8.125 0 8.25 0.0625 8.34375 0.15625C8.4375 0.25 8.5 0.375 8.5 0.5V1.0625C9.3125 1.125 10.0938 1.40625 10.7812 1.84375C11.4688 2.28125 12 2.875 12.4062 3.5625C12.7812 4.25 13 5 13 5.8125C13 7.15625 13.125 8.1875 13.4375 8.9375C13.625 9.46875 14 9.96875 14.5312 10.4688ZM13.5 12C13.7188 12 13.875 11.9062 13.9688 11.7188C14.0312 11.5312 14 11.3438 13.8438 11.1875C13.2188 10.5938 12.7812 9.96875 12.5312 9.28125C12.1562 8.4375 12 7.28125 12 5.8125C12 5.125 11.8125 4.5 11.4688 3.90625C11.0938 3.34375 10.625 2.875 10 2.53125C9.375 2.1875 8.71875 2 8 2C7.25 2 6.59375 2.1875 5.96875 2.53125C5.34375 2.875 4.875 3.34375 4.53125 3.90625C4.15625 4.5 4 5.125 4 5.8125C4 7.28125 3.8125 8.4375 3.46875 9.3125C3.21875 9.96875 2.78125 10.5938 2.15625 11.1875C1.96875 11.3438 1.9375 11.5312 2.03125 11.7188C2.09375 11.9062 2.25 12 2.5 12H13.5Z" fill="#636D73"/>
</svg>
