<svg width="12" height="16" viewBox="0 0 12 16" fill="none" xmlns="http://www.w3.org/2000/svg">
<path d="M11 6C11.125 6 11.25 6.0625 11.3438 6.15625C11.4375 6.25 11.5 6.375 11.5 6.5V8C11.5 8.9375 11.2812 9.78125 10.875 10.5625C10.4375 11.3438 9.875 12 9.15625 12.5C8.40625 13 7.625 13.3125 6.75 13.4375V14.5H8.5C8.625 14.5 8.75 14.5625 8.84375 14.6562C8.9375 14.75 9 14.875 9 15V15.5C9 15.6562 8.9375 15.7812 8.84375 15.875C8.75 15.9688 8.625 16 8.5 16H3.5C3.34375 16 3.21875 15.9688 3.125 15.875C3.03125 15.7812 3 15.6562 3 15.5V15C3 14.875 3.03125 14.75 3.125 14.6562C3.21875 14.5625 3.34375 14.5 3.5 14.5H5.25V13.4375C4.34375 13.3125 3.53125 13 2.8125 12.4375C2.0625 11.9062 1.5 11.2188 1.09375 10.4062C0.6875 9.59375 0.5 8.6875 0.5 7.75V6.5C0.5 6.375 0.53125 6.25 0.625 6.15625C0.71875 6.0625 0.84375 6 1 6H1.5C1.625 6 1.75 6.0625 1.84375 6.15625C1.9375 6.25 2 6.375 2 6.5V7.8125C2 8.5 2.15625 9.15625 2.46875 9.78125C2.78125 10.4062 3.1875 10.9062 3.75 11.2812C4.3125 11.6875 4.90625 11.9062 5.59375 11.9688C6.375 12.0625 7.09375 11.9375 7.78125 11.5938C8.4375 11.25 8.96875 10.75 9.375 10.125C9.78125 9.5 10 8.78125 10 8V6.5C10 6.375 10.0312 6.25 10.125 6.15625C10.2188 6.0625 10.3438 6 10.5 6H11ZM6 11C5.15625 11 4.4375 10.7188 3.875 10.125C3.28125 9.5625 3 8.84375 3 8V3C3 2.1875 3.28125 1.46875 3.875 0.875C4.4375 0.3125 5.15625 0 6 0C6.8125 0 7.53125 0.3125 8.125 0.875C8.6875 1.46875 9 2.1875 9 3V8C9 8.84375 8.6875 9.5625 8.125 10.125C7.53125 10.7188 6.8125 11 6 11ZM4.5 3V8C4.5 8.4375 4.625 8.78125 4.9375 9.0625C5.21875 9.375 5.5625 9.5 6 9.5C6.40625 9.5 6.75 9.375 7.0625 9.0625C7.34375 8.78125 7.5 8.4375 7.5 8V3C7.5 2.59375 7.34375 2.25 7.0625 1.9375C6.75 1.65625 6.40625 1.5 6 1.5C5.5625 1.5 5.21875 1.65625 4.9375 1.9375C4.625 2.25 4.5 2.59375 4.5 3Z" fill="white"/>
</svg>
