<svg width="14" height="14" viewBox="0 0 14 14" fill="none" xmlns="http://www.w3.org/2000/svg">
<path opacity="0.5" fill-rule="evenodd" clip-rule="evenodd" d="M13.4756 12.3928C13.4756 12.2886 13.4444 12.2053 13.3819 12.1428L12.0937 10.8438C12.0312 10.7813 11.9479 10.75 11.8437 10.75H11.4062C11.9062 10.1667 12.2968 9.51043 12.5781 8.78126C12.8593 8.0521 13 7.29168 13 6.50002C13 5.31252 12.7083 4.22398 12.125 3.2344C11.5416 2.24482 10.7552 1.45836 9.7656 0.875032C8.77602 0.2917 7.68748 3.43323e-05 6.49998 3.43323e-05C5.31249 3.43323e-05 4.22395 0.2917 3.23437 0.875032C2.24479 1.45836 1.45833 2.24482 0.874998 3.2344C0.291666 4.22398 0 5.31252 0 6.50002C0 7.68752 0.291666 8.77606 0.874998 9.76564C1.45833 10.7552 2.24479 11.5417 3.23437 12.125C4.22395 12.7083 5.31249 13 6.49998 13C7.29165 13 8.05206 12.8594 8.78123 12.5781C9.51039 12.2969 10.1666 11.9063 10.75 11.4063V11.8438C10.75 11.9271 10.7812 12.0104 10.8437 12.0938L12.1319 13.3615C12.1944 13.4449 12.2777 13.4865 12.3819 13.4865C12.486 13.4865 12.5798 13.4449 12.6631 13.3615L13.3819 12.674C13.4444 12.5907 13.4756 12.497 13.4756 12.3928ZM8.99998 10.8281C8.22915 11.276 7.39582 11.5 6.49998 11.5C5.60415 11.5 4.77082 11.276 3.99999 10.8281C3.22916 10.3802 2.61979 9.77084 2.17187 9.00001C1.72395 8.22918 1.5 7.39585 1.5 6.50002C1.5 5.60419 1.72395 4.77086 2.17187 4.00002C2.61979 3.22919 3.22916 2.61982 3.99999 2.1719C4.77082 1.72399 5.60415 1.50003 6.49998 1.50003C7.39582 1.50003 8.22915 1.72399 8.99998 2.1719C9.77081 2.61982 10.3802 3.22919 10.8281 4.00002C11.276 4.77086 11.5 5.60419 11.5 6.50002C11.5 7.39585 11.276 8.22918 10.8281 9.00001C10.3802 9.77084 9.77081 10.3802 8.99998 10.8281Z" fill="#636D73"/>
</svg>
