<svg width="164" height="42" viewBox="0 0 164 42" fill="none" xmlns="http://www.w3.org/2000/svg">
<path d="M50.688 31C50.4533 31 50.2613 30.9253 50.112 30.776C49.9627 30.6267 49.888 30.4347 49.888 30.2V15.16C49.888 14.9253 49.9627 14.7333 50.112 14.584C50.2613 14.4347 50.4533 14.36 50.688 14.36H54.176C54.4107 14.36 54.6027 14.4347 54.752 14.584C54.9013 14.7333 54.976 14.9253 54.976 15.16V16.248C55.4027 15.672 56 15.1707 56.768 14.744C57.536 14.296 58.4427 14.0613 59.488 14.04C61.9413 13.9973 63.6267 14.9253 64.544 16.824C65.0347 16.0133 65.7387 15.352 66.656 14.84C67.5733 14.3067 68.576 14.04 69.664 14.04C70.7733 14.04 71.7653 14.296 72.64 14.808C73.536 15.2987 74.2507 16.0667 74.784 17.112C75.3173 18.136 75.584 19.4693 75.584 21.112V30.2C75.584 30.4347 75.4987 30.6267 75.328 30.776C75.1787 30.9253 74.9973 31 74.784 31H71.072C70.8373 31 70.6347 30.9253 70.464 30.776C70.3147 30.6267 70.24 30.4347 70.24 30.2V21.336C70.24 20.5893 70.1333 20.0027 69.92 19.576C69.7067 19.128 69.4187 18.808 69.056 18.616C68.6933 18.424 68.2773 18.328 67.808 18.328C67.424 18.328 67.04 18.424 66.656 18.616C66.2933 18.808 65.9947 19.128 65.76 19.576C65.5467 20.0027 65.44 20.5893 65.44 21.336V30.2C65.44 30.4347 65.3653 30.6267 65.216 30.776C65.0667 30.9253 64.8747 31 64.64 31H60.928C60.6933 31 60.5013 30.9253 60.352 30.776C60.2027 30.6267 60.128 30.4347 60.128 30.2V21.336C60.128 20.5893 60.0107 20.0027 59.776 19.576C59.5413 19.128 59.2427 18.808 58.88 18.616C58.5173 18.424 58.112 18.328 57.664 18.328C57.28 18.328 56.896 18.424 56.512 18.616C56.1493 18.808 55.8507 19.128 55.616 19.576C55.4027 20.0027 55.296 20.5787 55.296 21.304V30.2C55.296 30.4347 55.2107 30.6267 55.04 30.776C54.8907 30.9253 54.6987 31 54.464 31H50.688ZM86.8493 31.32C84.3319 31.32 82.3266 30.6373 80.8333 29.272C79.3399 27.9067 78.5613 25.88 78.4973 23.192C78.4973 23.0427 78.4973 22.8507 78.4973 22.616C78.4973 22.3813 78.4973 22.2 78.4973 22.072C78.5613 20.3867 78.9346 18.9467 79.6173 17.752C80.3213 16.536 81.2813 15.6187 82.4973 15C83.7346 14.36 85.1746 14.04 86.8173 14.04C88.6946 14.04 90.2413 14.4133 91.4573 15.16C92.6946 15.9067 93.6226 16.92 94.2413 18.2C94.8599 19.48 95.1693 20.9413 95.1693 22.584V23.352C95.1693 23.5867 95.0839 23.7787 94.9132 23.928C94.7639 24.0773 94.5826 24.152 94.3693 24.152H84.1293C84.1293 24.1733 84.1293 24.2053 84.1293 24.248C84.1293 24.2907 84.1293 24.3333 84.1293 24.376C84.1506 24.9947 84.2573 25.56 84.4493 26.072C84.6413 26.584 84.9399 26.9893 85.3453 27.288C85.7506 27.5867 86.2413 27.736 86.8173 27.736C87.2439 27.736 87.5959 27.672 87.8733 27.544C88.1719 27.3947 88.4173 27.2347 88.6093 27.064C88.8013 26.872 88.9506 26.712 89.0573 26.584C89.2493 26.3707 89.3986 26.2427 89.5053 26.2C89.6333 26.136 89.8253 26.104 90.0813 26.104H94.0493C94.2626 26.104 94.4333 26.168 94.5613 26.296C94.7106 26.4027 94.7746 26.5627 94.7533 26.776C94.7319 27.1387 94.5506 27.576 94.2093 28.088C93.8679 28.6 93.3666 29.112 92.7053 29.624C92.0653 30.1147 91.2546 30.52 90.2733 30.84C89.2919 31.16 88.1506 31.32 86.8493 31.32ZM84.1293 20.984H89.5373V20.92C89.5373 20.2373 89.4306 19.64 89.2173 19.128C89.0253 18.616 88.7159 18.2213 88.2893 17.944C87.8839 17.6667 87.3933 17.528 86.8173 17.528C86.2413 17.528 85.7506 17.6667 85.3453 17.944C84.9613 18.2213 84.6626 18.616 84.4493 19.128C84.2359 19.64 84.1293 20.2373 84.1293 20.92V20.984ZM104.377 31.32C103.353 31.32 102.425 31.16 101.593 30.84C100.783 30.4987 100.079 30.008 99.4813 29.368C98.9053 28.7067 98.4573 27.9173 98.1373 27C97.8173 26.0613 97.6359 24.9947 97.5933 23.8C97.5719 23.3733 97.5613 23 97.5613 22.68C97.5613 22.3387 97.5719 21.9653 97.5933 21.56C97.6359 20.408 97.8173 19.3733 98.1373 18.456C98.4573 17.5387 98.9053 16.7493 99.4813 16.088C100.057 15.4267 100.761 14.9253 101.593 14.584C102.425 14.2213 103.353 14.04 104.377 14.04C105.444 14.04 106.361 14.2213 107.129 14.584C107.897 14.9253 108.548 15.3733 109.081 15.928V9.08C109.081 8.84533 109.156 8.65333 109.305 8.504C109.455 8.35467 109.647 8.28 109.881 8.28H113.785C113.999 8.28 114.18 8.35467 114.329 8.504C114.5 8.65333 114.585 8.84533 114.585 9.08V30.2C114.585 30.4347 114.5 30.6267 114.329 30.776C114.18 30.9253 113.999 31 113.785 31H110.169C109.935 31 109.743 30.9253 109.593 30.776C109.444 30.6267 109.369 30.4347 109.369 30.2V29.176C108.857 29.7947 108.196 30.3067 107.385 30.712C106.575 31.1173 105.572 31.32 104.377 31.32ZM106.105 27.032C106.831 27.032 107.396 26.8827 107.801 26.584C108.228 26.264 108.537 25.8587 108.729 25.368C108.943 24.8773 109.06 24.344 109.081 23.768C109.103 23.3413 109.113 22.936 109.113 22.552C109.113 22.168 109.103 21.7733 109.081 21.368C109.06 20.8347 108.943 20.344 108.729 19.896C108.516 19.4267 108.196 19.0533 107.769 18.776C107.343 18.4773 106.788 18.328 106.105 18.328C105.401 18.328 104.836 18.4773 104.409 18.776C104.004 19.0747 103.716 19.48 103.545 19.992C103.375 20.504 103.268 21.0693 103.225 21.688C103.161 22.3493 103.161 23.0107 103.225 23.672C103.268 24.2907 103.375 24.856 103.545 25.368C103.716 25.88 104.004 26.2853 104.409 26.584C104.836 26.8827 105.401 27.032 106.105 27.032Z" fill="#414D55"/>
<path d="M124.469 31.32C123.253 31.32 122.165 31.0427 121.205 30.488C120.266 29.9333 119.53 29.1227 118.997 28.056C118.463 26.968 118.197 25.6453 118.197 24.088V15.16C118.197 14.9253 118.271 14.7333 118.421 14.584C118.57 14.4347 118.762 14.36 118.997 14.36H122.997C123.231 14.36 123.423 14.4347 123.573 14.584C123.722 14.7333 123.797 14.9253 123.797 15.16V23.896C123.797 25.9867 124.735 27.032 126.613 27.032C127.487 27.032 128.181 26.7653 128.693 26.232C129.226 25.6773 129.493 24.8987 129.493 23.896V15.16C129.493 14.9253 129.567 14.7333 129.717 14.584C129.866 14.4347 130.058 14.36 130.293 14.36H134.293C134.527 14.36 134.719 14.4347 134.869 14.584C135.018 14.7333 135.093 14.9253 135.093 15.16V30.2C135.093 30.4347 135.018 30.6267 134.869 30.776C134.719 30.9253 134.527 31 134.293 31H130.581C130.367 31 130.175 30.9253 130.005 30.776C129.855 30.6267 129.781 30.4347 129.781 30.2V28.984C129.226 29.752 128.501 30.3387 127.605 30.744C126.73 31.128 125.685 31.32 124.469 31.32ZM138.185 31C137.993 31 137.822 30.936 137.673 30.808C137.545 30.6587 137.481 30.488 137.481 30.296C137.481 30.232 137.491 30.1573 137.513 30.072C137.534 29.9653 137.577 29.8693 137.641 29.784L142.985 22.456L138.121 15.576C138.057 15.4907 138.003 15.4053 137.961 15.32C137.939 15.2347 137.929 15.1493 137.929 15.064C137.929 14.872 138.003 14.712 138.153 14.584C138.302 14.4347 138.473 14.36 138.665 14.36H142.569C142.846 14.36 143.049 14.424 143.177 14.552C143.326 14.68 143.433 14.7973 143.497 14.904L146.473 19.032L149.417 14.936C149.502 14.8293 149.609 14.712 149.737 14.584C149.886 14.4347 150.099 14.36 150.377 14.36H154.121C154.313 14.36 154.473 14.4347 154.601 14.584C154.75 14.712 154.825 14.872 154.825 15.064C154.825 15.1493 154.814 15.2347 154.793 15.32C154.771 15.4053 154.729 15.4907 154.665 15.576L149.673 22.456L155.081 29.784C155.166 29.8693 155.219 29.9547 155.241 30.04C155.262 30.1253 155.273 30.2107 155.273 30.296C155.273 30.488 155.198 30.6587 155.049 30.808C154.921 30.936 154.75 31 154.537 31H150.473C150.217 31 150.025 30.9467 149.897 30.84C149.769 30.712 149.662 30.5947 149.577 30.488L146.345 26.104L143.081 30.488C142.995 30.5733 142.889 30.68 142.761 30.808C142.633 30.936 142.43 31 142.153 31H138.185Z" fill="#2662F0"/>
<rect x="-0.5" y="12" width="20" height="31" rx="10" transform="rotate(-30 -0.5 12)" fill="#285CDB"/>
<g filter="url(#filter0_d_2_27270)">
<rect x="22.5" y="2.13398" width="20" height="31" rx="10" transform="rotate(30 22.5 2.13398)" fill="black" fill-opacity="0.01"/>
</g>
<rect x="23.5" y="2" width="20" height="31" rx="10" transform="rotate(30 23.5 2)" fill="url(#paint0_linear_2_27270)"/>
<defs>
<filter id="filter0_d_2_27270" x="6.65858" y="3.79256" width="33.5033" height="37.5296" filterUnits="userSpaceOnUse" color-interpolation-filters="sRGB">
<feFlood flood-opacity="0" result="BackgroundImageFix"/>
<feColorMatrix in="SourceAlpha" type="matrix" values="0 0 0 0 0 0 0 0 0 0 0 0 0 0 0 0 0 0 127 0" result="hardAlpha"/>
<feOffset dy="2"/>
<feGaussianBlur stdDeviation="2"/>
<feColorMatrix type="matrix" values="0 0 0 0 0 0 0 0 0 0 0 0 0 0 0 0 0 0 0.5 0"/>
<feBlend mode="normal" in2="BackgroundImageFix" result="effect1_dropShadow_2_27270"/>
<feBlend mode="normal" in="SourceGraphic" in2="effect1_dropShadow_2_27270" result="shape"/>
</filter>
<linearGradient id="paint0_linear_2_27270" x1="9.85193" y1="17.8327" x2="32.3456" y2="34.553" gradientUnits="userSpaceOnUse">
<stop stop-color="#3B75FF"/>
<stop offset="1" stop-color="#285CDB"/>
</linearGradient>
</defs>
</svg>
